<svg width="349" height="349" viewBox="0 0 349 349" fill="none" xmlns="http://www.w3.org/2000/svg">
<rect x="6" y="11" width="338" height="338" rx="36" fill="#C4C4C4"/>
<rect x="6" width="338" height="338" rx="36" fill="white"/>
<rect x="175" y="65" width="169" height="10" fill="#868686"/>
<rect x="170" y="115" width="174" height="10" fill="#868686"/>
<rect x="152" y="165" width="192" height="9" fill="#868686"/>
<rect x="152" y="214" width="192" height="10" fill="#868686"/>
<rect x="168" y="264" width="176" height="10" fill="#868686"/>
<g clip-path="url(#clip0_1_2)">
<path d="M51.4349 228.565V259.195L83.6957 255.826L106.739 219.479L134.391 178.587L166.652 151.326V130.88C166.652 117.079 155.304 105.891 141.305 105.891C136.214 105.891 132.087 109.959 132.087 114.978V137.696H115.957C105.776 137.696 97.5217 145.833 97.5217 155.87V178.587H88.3043C80.6681 178.587 74.4783 184.689 74.4783 192.217V219.478H60.6523C55.5614 219.478 51.4349 223.547 51.4349 228.565Z" fill="#233F00"/>
<path d="M51.4349 259.194V228.565C51.4349 223.546 55.5614 219.478 60.6523 219.478H85.9847L83.6962 255.826L51.4349 259.194ZM97.5217 178.587V155.87C97.5217 145.833 105.775 137.696 115.957 137.696H132.087L134.391 178.587H97.5217V178.587Z" fill="#233F00"/>
<path d="M33 271.158V271.202C33 272.747 34.2708 274 35.838 274H65.2608C96.335 274 125.066 263.89 148.217 246.829V260.37C148.217 267.898 154.407 274 162.043 274H175.869H208.131C215.767 274 221.957 267.898 221.957 260.37C221.957 252.842 215.767 246.739 208.131 246.739H175.87V219.741C187.175 205.03 195.522 187.997 200.026 169.5H240.391C242.937 169.5 245 167.466 245 164.957C245 157.429 238.81 151.326 231.174 151.326H203.137C203.289 149.818 203.421 148.305 203.522 146.783V110.435H218.547C225.52 110.435 231.174 104.862 231.174 97.9873C231.174 94.3535 229.563 90.9009 226.764 88.5358L205.527 70.5899C201.259 66.9822 195.823 65 190.202 65C177.196 65 166.652 75.3941 166.652 88.2161V137.696V137.997C143.591 140.127 123.047 153.754 112.392 174.357C94.1827 209.568 64.2083 258.814 34.9026 268.517C33.7586 268.896 33 269.969 33 271.158Z" fill="#4F8D00"/>
<path d="M33 271.158V271.202C33 272.747 34.2708 274 35.838 274H65.2608C69.6735 274 74.0377 273.789 78.3469 273.39C102.254 255.192 125.107 216.87 140.044 187.988C150.699 167.384 171.243 153.757 194.304 151.627V151.326H203.137C203.289 149.818 203.42 148.304 203.521 146.783V110.435H218.547C225.52 110.435 231.174 104.861 231.174 97.9869C231.174 94.3531 229.563 90.9005 226.764 88.5354L205.527 70.5895C201.259 66.9822 195.823 65 190.202 65C177.196 65 166.652 75.3941 166.652 88.2161V128.609V137.696V137.997C143.591 140.127 123.047 153.754 112.392 174.357C94.1827 209.568 64.2083 258.814 34.9026 268.517C33.7586 268.896 33 269.969 33 271.158Z" fill="#569B00"/>
<path d="M185.087 82.2654V83.174C185.087 85.6832 187.15 87.7173 189.695 87.7173C192.241 87.7173 194.304 85.6832 194.304 83.174V82.2654C194.304 79.7561 192.241 77.7221 189.695 77.7221C187.15 77.7217 185.087 79.7557 185.087 82.2654Z" fill="#376300"/>
</g>
<defs>
<clipPath id="clip0_1_2">
<rect width="212" height="209" fill="white" transform="matrix(-1 0 0 1 245 65)"/>
</clipPath>
</defs>
</svg>
